<?xml version="1.0" encoding="utf-8"?>
<!-- Generator: Adobe Illustrator 16.0.0, SVG Export Plug-In . SVG Version: 6.00 Build 0)  -->
<!DOCTYPE svg PUBLIC "-//W3C//DTD SVG 1.1//EN" "http://www.w3.org/Graphics/SVG/1.1/DTD/svg11.dtd">
<svg version="1.1" id="Layer_1" xmlns="http://www.w3.org/2000/svg" xmlns:xlink="http://www.w3.org/1999/xlink" x="0px" y="0px"
	 width="100px" height="100px" viewBox="0 0 100 100" enable-background="new 0 0 100 100" xml:space="preserve">
<path fill="#990000" d="M71.973,21.875C71.973,9.796,62.177,0,50.098,0S28.223,9.796,28.223,21.875
	c0,11.011,8.164,20.032,18.75,21.558V100h6.25V43.433C63.807,41.907,71.973,32.886,71.973,21.875z"/>
<path fill="#FFFFFF" d="M59.438,25.635h-0.017l-5.639-8.306v-4.868h0.097c0.508,0,0.92-0.412,0.92-0.919v-0.613
	c0-0.508-0.412-0.919-0.92-0.919h-7.563c-0.508,0-0.919,0.412-0.919,0.919v0.613c0,0.507,0.411,0.919,0.919,0.919h0.127v4.868
	l-5.686,8.382c-0.531,0.766-0.729,1.614-0.597,2.543V28.24c0.112,0.909,0.521,1.67,1.226,2.283c0.01,0,0.015,0.005,0.015,0.016
	c0.695,0.603,1.497,0.904,2.406,0.904l12.612-0.093c0.919-0.01,1.722-0.316,2.406-0.919h0.015c0.685-0.623,1.088-1.389,1.211-2.298
	C60.151,27.224,59.948,26.391,59.438,25.635z M59.176,27.95l-0.008,0.09c-0.09,0.678-0.395,1.257-0.904,1.722
	c-0.549,0.471-1.168,0.701-1.861,0.701l-12.655,0.092c-0.666,0-1.265-0.225-1.781-0.666l-0.321-0.275v-0.061
	c-0.34-0.397-0.548-0.869-0.62-1.406l-0.008-0.082c-0.072-0.671,0.091-1.311,0.474-1.856l3.233-4.757h10.791l3.18,4.678
	C59.075,26.685,59.237,27.298,59.176,27.95z"/>
<circle fill="#FFFFFF" cx="45.671" cy="23.575" r="0.866"/>
<circle fill="#FFFFFF" cx="51.378" cy="25.511" r="1.63"/>
<circle fill="#FFFFFF" cx="46.079" cy="29.128" r="0.458"/>
<circle fill="#FFFFFF" cx="55.046" cy="29.128" r="0.866"/>
</svg>
