<?xml version="1.0" encoding="utf-8"?>
<!-- Generator: Adobe Illustrator 16.0.0, SVG Export Plug-In . SVG Version: 6.00 Build 0)  -->
<!DOCTYPE svg PUBLIC "-//W3C//DTD SVG 1.1//EN" "http://www.w3.org/Graphics/SVG/1.1/DTD/svg11.dtd">
<svg version="1.1" id="Layer_1" xmlns="http://www.w3.org/2000/svg" xmlns:xlink="http://www.w3.org/1999/xlink" x="0px" y="0px"
	 width="100px" height="100px" viewBox="0 0 100 100" enable-background="new 0 0 100 100" xml:space="preserve">
<path fill="#006699" d="M71.973,21.875C71.973,9.796,62.177,0,50.098,0S28.223,9.796,28.223,21.875
	c0,11.011,8.164,20.032,18.75,21.558V100h6.25V43.433C63.807,41.907,71.973,32.886,71.973,21.875z"/>
<polygon fill="#FFFFFF" points="44.983,23.241 44.983,25.691 46.616,25.691 53.967,25.691 55.601,25.691 55.601,23.241 "/>
<path fill="#FFFFFF" d="M49.067,19.566c0-0.226-0.184-0.409-0.409-0.409c-0.18,0-0.329,0.119-0.382,0.281l-0.005-0.001l-0.723,2.171
	h-2.156c-0.226,0-0.409,0.183-0.409,0.408s0.183,0.408,0.409,0.408h2.745l0.91-2.729l-0.005-0.001
	C49.055,19.653,49.067,19.611,49.067,19.566z"/>
<circle fill="#FFFFFF" cx="43.758" cy="14.666" r="1.838"/>
<path fill="#FFFFFF" d="M46.208,19.158H42.69l-1.03-2.818l-0.006,0.002c-0.156-0.497-0.615-0.859-1.163-0.859
	c-0.197,0-0.381,0.051-0.546,0.134l-0.002-0.005c-2.807,1.403-4.353,4.548-4.353,8.855c0,0.676,0.548,1.225,1.226,1.225h3.675v4.084
	c0,0.677,0.548,1.225,1.225,1.225s1.225-0.548,1.225-1.225v-5.309c0-0.677-0.548-1.225-1.225-1.225h-3.624
	c0.149-1.761,0.669-3.661,2.047-4.838l1.254,1.937l0.003-0.001c0.134,0.267,0.408,0.453,0.728,0.453h4.083
	c0.451,0,0.817-0.366,0.817-0.816C47.025,19.523,46.659,19.158,46.208,19.158z"/>
<path fill="#FFFFFF" d="M55.192,21.608h-2.156l-0.724-2.171l-0.004,0.001c-0.055-0.162-0.203-0.281-0.383-0.281
	c-0.226,0-0.409,0.183-0.409,0.409c0,0.045,0.013,0.087,0.026,0.127l-0.006,0.001l0.91,2.729h2.745c0.226,0,0.408-0.183,0.408-0.409
	C55.601,21.791,55.418,21.608,55.192,21.608z"/>
<circle fill="#FFFFFF" cx="56.825" cy="14.666" r="1.838"/>
<path fill="#FFFFFF" d="M60.641,15.611l-0.002,0.005c-0.165-0.083-0.349-0.134-0.546-0.134c-0.549,0-1.007,0.363-1.164,0.859
	l-0.005-0.002l-1.029,2.818h-3.52c-0.451,0-0.815,0.365-0.815,0.816c0,0.451,0.365,0.816,0.815,0.816h4.084
	c0.319,0,0.594-0.186,0.729-0.453l0.002,0.001l1.254-1.937c1.379,1.178,1.899,3.077,2.048,4.838h-3.624
	c-0.676,0-1.225,0.548-1.225,1.225v5.309c0,0.677,0.549,1.225,1.225,1.225c0.677,0,1.226-0.548,1.226-1.225v-4.084h3.676
	c0.677,0,1.225-0.549,1.225-1.225C64.993,20.16,63.447,17.015,60.641,15.611z"/>
</svg>
