<?xml version="1.0" encoding="utf-8"?>
<!-- Generator: Adobe Illustrator 16.0.0, SVG Export Plug-In . SVG Version: 6.00 Build 0)  -->
<!DOCTYPE svg PUBLIC "-//W3C//DTD SVG 1.1//EN" "http://www.w3.org/Graphics/SVG/1.1/DTD/svg11.dtd">
<svg version="1.1" id="Layer_1" xmlns="http://www.w3.org/2000/svg" xmlns:xlink="http://www.w3.org/1999/xlink" x="0px" y="0px"
	 width="100px" height="100px" viewBox="0 0 100 100" enable-background="new 0 0 100 100" xml:space="preserve">
<path fill="#FF99FF" d="M71.973,21.875C71.973,9.796,62.177,0,50.098,0C38.019,0,28.223,9.796,28.223,21.875
	c0,11.011,8.164,20.032,18.75,21.558V100h6.25V43.433C63.807,41.907,71.973,32.886,71.973,21.875z"/>
<path fill="#FFFFFF" d="M62.721,15.158v3.305v11.962c0,2.001-1.63,3.584-3.586,3.584H40.89c-2.002,0-3.584-1.629-3.584-3.584V18.462
	v-3.305c0-2.001,1.629-3.584,3.584-3.584h1.21v1.396v2.094c0,1.443,1.164,2.607,2.607,2.607s2.606-1.164,2.606-2.607V12.97v-1.396
	h5.68v1.396v2.094c0,1.443,1.161,2.607,2.604,2.607c1.442,0,2.607-1.164,2.607-2.607V12.97v-1.396h0.977
	C61.091,11.573,62.721,13.156,62.721,15.158z M61.648,18.137H38.376v12.288c0,1.396,1.117,2.514,2.514,2.514h18.245
	c1.397,0,2.514-1.117,2.514-2.514V18.137L61.648,18.137z M44.707,16.647c0.884,0,1.583-0.698,1.583-1.583V12.97v-1.396V9.805
	c0-0.884-0.699-1.583-1.583-1.583c-0.885,0-1.583,0.698-1.583,1.583v1.769v1.397v2.094C43.124,15.949,43.822,16.647,44.707,16.647z
	 M55.598,16.647c0.885,0,1.584-0.698,1.584-1.583V12.97v-1.396V9.805c0-0.884-0.699-1.583-1.584-1.583
	c-0.884,0-1.582,0.698-1.582,1.583v1.769v1.397v2.094C53.969,15.949,54.714,16.647,55.598,16.647z M55.831,21.488
	c-0.466-0.465-1.257-0.465-1.724,0L48.43,27.12l-2.514-2.513c-0.465-0.466-1.256-0.466-1.722,0c-0.466,0.465-0.466,1.256,0,1.722
	l3.351,3.352c0.232,0.232,0.558,0.373,0.837,0.373c0.279,0,0.606-0.14,0.838-0.373l6.516-6.517
	C56.296,22.698,56.296,21.954,55.831,21.488z"/>
</svg>
