<?xml version="1.0" encoding="utf-8"?>
<!-- Generator: Adobe Illustrator 16.0.0, SVG Export Plug-In . SVG Version: 6.00 Build 0)  -->
<!DOCTYPE svg PUBLIC "-//W3C//DTD SVG 1.1//EN" "http://www.w3.org/Graphics/SVG/1.1/DTD/svg11.dtd">
<svg version="1.1" id="Layer_1" xmlns="http://www.w3.org/2000/svg" xmlns:xlink="http://www.w3.org/1999/xlink" x="0px" y="0px"
	 width="100px" height="100px" viewBox="0 0 100 100" enable-background="new 0 0 100 100" xml:space="preserve">
<path fill="#FFCC99" d="M71.973,21.875C71.973,9.796,62.177,0,50.098,0C38.019,0,28.223,9.796,28.223,21.875
	c0,11.011,8.164,20.032,18.75,21.558V100h6.25V43.433C63.807,41.907,71.973,32.886,71.973,21.875z"/>
<path fill="#FFFFFF" d="M49.012,21.206c-0.889,0-1.655,0.429-2.144,1.073c-0.491-0.644-1.288-1.073-2.146-1.073
	c-1.5,0-2.727,1.226-2.727,2.728c0,1.5,1.226,2.726,2.727,2.726c0.889,0,1.655-0.429,2.146-1.073
	c0.489,0.644,1.287,1.073,2.144,1.073c1.501,0,2.728-1.226,2.728-2.726C51.738,22.432,50.482,21.206,49.012,21.206z M44.691,25.526
	c-0.888,0-1.593-0.706-1.593-1.593c0-0.889,0.706-1.594,1.593-1.594c0.889,0,1.594,0.706,1.594,1.594
	C46.286,24.821,45.58,25.526,44.691,25.526z M49.012,25.526c-0.889,0-1.593-0.706-1.593-1.593c0-0.889,0.704-1.594,1.593-1.594
	c0.889,0,1.593,0.706,1.593,1.594C50.605,24.821,49.87,25.526,49.012,25.526z M62.033,21.819c0,0.307-0.245,0.46-0.551,0.46H53.73
	c-0.308,0-0.551-0.153-0.551-0.46c0-0.307,0.243-0.459,0.551-0.459h7.752C61.788,21.359,62.033,21.512,62.033,21.819z
	 M62.033,23.963c0,0.306-0.245,0.459-0.551,0.459H53.73c-0.308,0-0.551-0.153-0.551-0.459c0-0.307,0.243-0.458,0.551-0.458h7.752
	C61.788,23.505,62.033,23.657,62.033,23.963z M62.033,26.109c0,0.306-0.245,0.459-0.551,0.459H53.73
	c-0.308,0-0.551-0.153-0.551-0.459c0-0.307,0.243-0.46,0.551-0.46h7.752C61.788,25.649,62.033,25.802,62.033,26.109z M62.616,16.334
	c-0.03-1.071-0.858-1.899-1.962-1.93c-0.062-1.103-0.92-1.9-2.021-1.9H37.614c-1.133-0.029-2.114,0.767-2.114,1.9v11.123
	c0,1.103,0.889,1.991,1.992,2.053c0.031,1.071,0.95,1.93,2.022,1.96v-0.03v-0.031c0,1.133,0.919,2.022,2.053,2.022h21.049
	c1.134,0,1.991-0.858,1.991-1.991V18.357C64.607,17.253,63.75,16.334,62.616,16.334z M37.645,16.365v10.08
	c-0.613-0.061-0.919-0.429-0.919-0.918V14.404c0-0.521,0.368-1.011,0.888-1.011h21.049c0.489,0,0.889,0.307,0.919,0.919H39.575
	C38.441,14.312,37.645,15.231,37.645,16.365z M39.483,18.357v10.049c-0.307-0.031-0.919-0.429-0.919-0.919V16.365
	c0-0.521,0.49-0.827,1.011-0.827h21.049c0.491,0,0.89,0.307,0.92,0.918H41.567C40.433,16.457,39.483,17.253,39.483,18.357z
	 M63.688,29.326c0,0.521-0.43,0.919-0.92,0.919H41.627c-0.52,0-0.919-0.43-0.919-0.919v-11.03c0-0.521,0.429-0.919,0.919-0.919
	h21.141c0.521,0,0.92,0.429,0.92,0.919V29.326z"/>
</svg>
