<?xml version="1.0" encoding="utf-8"?>
<!-- Generator: Adobe Illustrator 15.1.0, SVG Export Plug-In . SVG Version: 6.00 Build 0)  -->
<!DOCTYPE svg PUBLIC "-//W3C//DTD SVG 1.1//EN" "http://www.w3.org/Graphics/SVG/1.1/DTD/svg11.dtd">
<svg version="1.1" id="Layer_1" xmlns="http://www.w3.org/2000/svg" xmlns:xlink="http://www.w3.org/1999/xlink" x="0px" y="0px"
	 width="533px" height="115px" viewBox="0 0 533 115" enable-background="new 0 0 533 115" xml:space="preserve">
<text transform="matrix(1 0 0 1 27.1055 83.5908)" fill="#9A3333" font-family="'TheBoldFont'" font-size="72">HARLEMTECH</text>
<g>
	<defs>
		<rect id="SVGID_1_" width="533" height="115"/>
	</defs>
	<clipPath id="SVGID_2_">
		<use xlink:href="#SVGID_1_"  overflow="visible"/>
	</clipPath>
	<path clip-path="url(#SVGID_2_)" fill="#991B1E" d="M474.293,78.693c-0.01-2.348-1.59-4.307-3.721-4.863l-0.028-7.486
		c1.423-0.53,2.441-1.911,2.436-3.543c-0.007-2.081-1.671-3.765-3.717-3.757s-3.696,1.701-3.689,3.784
		c0.007,1.633,1.035,3.006,2.46,3.526l0.027,7.485c-2.127,0.574-3.693,2.548-3.685,4.894c0.01,2.789,2.237,5.039,4.977,5.03
		C472.092,83.75,474.302,81.483,474.293,78.693 M466.886,78.722c-0.003-1.377,1.087-2.493,2.439-2.5
		c1.351-0.005,2.449,1.104,2.456,2.483c0.003,1.375-1.086,2.494-2.439,2.501C467.991,81.208,466.893,80.099,466.886,78.722
		 M481.235,76.766c-0.644-0.495-1.055-1.195-1.086-2.887c-0.01-2.785,0.008-5.944,0.019-7.356c1.426-0.528,2.449-1.91,2.444-3.547
		c-0.007-2.082-1.673-3.764-3.717-3.756c-2.046,0.007-3.698,1.702-3.691,3.785c0.006,1.629,1.031,3,2.453,3.521
		c-0.01,1.426-0.025,4.576-0.015,7.362c-0.018,2.146,0.702,3.924,2.123,4.949c1.402,1.015,3.156,1.271,5.145,1.272l20.403-0.077
		c0.515,2.239,2.487,3.903,4.841,3.896c2.738-0.012,4.949-2.278,4.941-5.069c-0.012-2.789-2.237-5.037-4.978-5.029
		c-2.252,0.01-4.146,1.548-4.743,3.646L484.9,77.553C483.141,77.567,481.896,77.27,481.235,76.766 M472.542,53.611
		c-0.006-1.631-1.034-3.004-2.461-3.523l-0.033-9.189c2.128-0.574,3.693-2.547,3.686-4.894c-0.011-2.786-2.238-5.04-4.978-5.03
		c-2.739,0.014-4.949,2.277-4.94,5.067c0.009,2.348,1.591,4.307,3.72,4.867l0.034,9.189c-1.421,0.529-2.439,1.909-2.434,3.542
		c0.007,2.082,1.671,3.765,3.717,3.757C470.896,57.39,472.551,55.692,472.542,53.611 M466.325,36.033
		c-0.002-1.376,1.088-2.494,2.439-2.5c1.352-0.004,2.452,1.106,2.458,2.481c0.002,1.378-1.087,2.497-2.44,2.503
		C467.432,38.52,466.333,37.411,466.325,36.033 M477.007,36.206c0.006,1.598,0.742,3.016,1.882,3.937
		c-0.229,0.617-0.545,1.459-0.841,2.222c-0.354,0.881-0.673,1.915-0.65,3.529c0.002,1.092,0.012,3.856,0.015,4.379
		c-1.424,0.531-2.441,1.911-2.435,3.542c0.007,2.082,1.671,3.766,3.717,3.758c2.047-0.008,3.697-1.702,3.69-3.786
		c-0.006-1.632-1.037-3.005-2.463-3.524l-0.017-4.378c0.012-1.367,0.165-1.74,0.477-2.581c0.282-0.728,0.581-1.524,0.81-2.134
		c0.259,0.04,0.522,0.068,0.794,0.067c2.736-0.011,4.949-2.278,4.938-5.07c-0.009-2.786-2.237-5.038-4.975-5.031
		C479.21,31.148,476.999,33.415,477.007,36.206 M484.412,36.177c0.003,1.379-1.084,2.497-2.437,2.504
		c-1.354,0.003-2.452-1.107-2.459-2.485c-0.002-1.375,1.088-2.494,2.441-2.501C483.31,33.69,484.406,34.802,484.412,36.177
		 M487.671,61.449c1.515-0.043,2.782-1.002,3.323-2.34l11.776-0.326c1.287-0.036,2.657-0.383,3.72-1.403
		c1.067-1.021,1.624-2.618,1.561-4.603c-0.016-0.562-0.051-1.161-0.084-1.676c2.15-0.6,3.704-2.628,3.641-5.001
		c-0.075-2.788-2.353-4.985-5.09-4.911c-2.738,0.077-4.896,2.396-4.82,5.185c0.063,2.319,1.648,4.224,3.756,4.759
		c0.036,0.52,0.074,1.15,0.089,1.713c0.03,1.527-0.343,2.248-0.779,2.678c-0.442,0.433-1.147,0.678-2.061,0.703l-11.613,0.322
		c-0.484-1.565-1.927-2.687-3.618-2.64c-2.042,0.057-3.656,1.79-3.601,3.873C483.927,59.864,485.631,61.507,487.671,61.449
		 M506.363,44.038c1.351-0.001,2.448,1.107,2.457,2.485c0.003,1.376-1.088,2.494-2.439,2.502c-1.354,0.002-2.449-1.109-2.455-2.484
		C503.921,45.163,505.01,44.046,506.363,44.038"/>
</g>
</svg>
