<?xml version="1.0" encoding="utf-8"?>
<!-- Generator: Adobe Illustrator 16.0.0, SVG Export Plug-In . SVG Version: 6.00 Build 0)  -->
<!DOCTYPE svg PUBLIC "-//W3C//DTD SVG 1.1//EN" "http://www.w3.org/Graphics/SVG/1.1/DTD/svg11.dtd">
<svg version="1.1" id="Layer_1" xmlns="http://www.w3.org/2000/svg" xmlns:xlink="http://www.w3.org/1999/xlink" x="0px" y="0px"
	 width="100px" height="100px" viewBox="0 0 100 100" enable-background="new 0 0 100 100" xml:space="preserve">
<path fill="#FF3300" d="M71.973,21.875C71.973,9.796,62.177,0,50.098,0S28.223,9.796,28.223,21.875
	c0,11.011,8.164,20.032,18.75,21.558V100h6.25V43.433C63.807,41.907,71.973,32.886,71.973,21.875z"/>
<path fill="#FFFFFF" d="M57.997,6.941H42.299c-1.872,0-3.403,1.642-3.403,3.65v7.983v4.949v8.925c0,2.521,1.913,4.574,4.265,4.574
	h2.541c0.941,0,1.702-0.818,1.702-1.825v-3.864h0V29.75c0-0.51,0.386-0.923,0.861-0.923h3.767c0.476,0,0.861,0.414,0.861,0.923
	v1.584v2.063v1.587c0,0.125,0.013,0.25,0.036,0.372l0.041,0.214c0.166,0.847,0.859,1.453,1.666,1.453h2.5
	c2.353,0,4.264-2.052,4.264-4.574v-5.972V18.36v-7.77C61.399,8.583,59.868,6.941,57.997,6.941z M46.41,23.766
	c0,0.755-0.572,1.369-1.276,1.369h-1.073c-0.703,0-1.276-0.614-1.276-1.369v-3.649c0-0.755,0.573-1.369,1.276-1.369h1.073
	c0.704,0,1.276,0.614,1.276,1.369V23.766z M46.41,15.594c0,0.754-0.572,1.368-1.276,1.368h-1.073c-0.703,0-1.276-0.614-1.276-1.368
	v-3.649c0-0.755,0.573-1.369,1.276-1.369h1.073c0.704,0,1.276,0.614,1.276,1.369V15.594z M51.96,23.766
	c0,0.755-0.571,1.369-1.275,1.369h-1.073c-0.704,0-1.276-0.614-1.276-1.369v-3.649c0-0.755,0.572-1.369,1.276-1.369h1.073
	c0.704,0,1.275,0.614,1.275,1.369V23.766z M51.96,15.594c0,0.754-0.571,1.368-1.275,1.368h-1.073c-0.704,0-1.276-0.614-1.276-1.368
	v-3.649c0-0.755,0.572-1.369,1.276-1.369h1.073c0.704,0,1.275,0.614,1.275,1.369V15.594z M57.512,23.766
	c0,0.755-0.573,1.369-1.276,1.369h-1.073c-0.704,0-1.277-0.614-1.277-1.369v-3.649c0-0.755,0.573-1.369,1.277-1.369h1.073
	c0.703,0,1.276,0.614,1.276,1.369V23.766z M57.512,15.594c0,0.754-0.573,1.368-1.276,1.368h-1.073c-0.704,0-1.277-0.614-1.277-1.368
	v-3.649c0-0.755,0.573-1.369,1.277-1.369h1.073c0.703,0,1.276,0.614,1.276,1.369V15.594z"/>
</svg>
