<?xml version="1.0" encoding="utf-8"?>
<!-- Generator: Adobe Illustrator 15.1.0, SVG Export Plug-In . SVG Version: 6.00 Build 0)  -->
<!DOCTYPE svg PUBLIC "-//W3C//DTD SVG 1.1//EN" "http://www.w3.org/Graphics/SVG/1.1/DTD/svg11.dtd">
<svg version="1.1" id="Layer_1" xmlns="http://www.w3.org/2000/svg" xmlns:xlink="http://www.w3.org/1999/xlink" x="0px" y="0px"
	 width="100px" height="100px" viewBox="0 0 100 100" enable-background="new 0 0 100 100" xml:space="preserve">
<path fill="#33CCCC" d="M71.973,21.875C71.973,9.796,62.177,0,50.098,0C38.019,0,28.223,9.796,28.223,21.875
	c0,11.011,8.164,20.032,18.75,21.558V100h6.25V43.433C63.807,41.907,71.973,32.886,71.973,21.875z"/>
<g>
	<path fill="#FFFFFF" d="M39.314,26.019c-0.508,0-0.919-0.411-0.919-0.918V14.252c0-2.02,1.737-2.02,2.67-2.02h18.586
		c0.515,0,1.048,0,1.431,0.407c0.359,0.379,0.33,0.84,0.31,1.209c-0.009,0.135-0.017,0.286-0.017,0.468v10.555
		c0,0.508-0.411,0.919-0.92,0.919c-0.507,0-0.919-0.412-0.919-0.919V14.316c0-0.089,0.001-0.17,0.005-0.247H41.065
		c-0.215,0-0.635,0-0.824,0.043c-0.004,0.033-0.008,0.078-0.008,0.139V25.1C40.233,25.608,39.822,26.019,39.314,26.019z"/>
</g>
<path fill="#FFFFFF" d="M61.403,27.398h-7.152v0.037c0,1.121-0.909,2.031-2.03,2.031h-4.442c-1.122,0-2.031-0.91-2.031-2.031v-0.037
	h-7.153c-0.873,0-1.12,0.708-1.12,1.58v0.057c0,0.873,0.248,1.58,1.12,1.58h22.808c0.873,0,1.12-0.708,1.12-1.58v-0.057
	C62.523,28.106,62.276,27.398,61.403,27.398z"/>
</svg>
